<?xml version="1.0" encoding="UTF-8"?>
<svg width="1000" height="1000" xmlns="http://www.w3.org/2000/svg" xmlns:svg="http://www.w3.org/2000/svg">
 <title>hint</title>
 <metadata>Svg Vector Icons : http://www.onlinewebfonts.com/icon</metadata>
 <g>
  <title>Layer 1</title>
  <g id="svg_1">
   <path fill="#ffd57e" id="svg_2" d="m498.6,176.8c-153.9,0 -278.6,124.8 -278.6,278.6c0,96.8 49.4,182.1 124.3,232l0,189l310.6,0l0,-190.3c73.8,-50.1 122.3,-134.7 122.3,-230.7c0,-153.8 -124.7,-278.6 -278.6,-278.6zm147.4,428.8c-16.5,16.2 -35.6,29.6 -56.7,39.7l0,155.9l-179.5,0l0,-155.8c-21.2,-10.1 -40.4,-23.6 -56.9,-39.8c-38.7,-38 -62.7,-90.8 -62.7,-149.3c0,-115.6 93.7,-209.2 209.2,-209.2c115.6,0 209.2,93.7 209.2,209.2c0.1,58.5 -23.9,111.4 -62.6,149.3z"/>
   <path fill="#ffd57e" id="svg_3" d="m360.1,919.6l280.2,0l0,70.4l-280.2,0l0,-70.4z"/>
   <path fill="#ffd57e" id="svg_4" d="m114.9,696.1l77.5,-77.5l49.8,49.8l-77.5,77.5l-49.8,-49.8l0,0z"/>
   <path fill="#ffd57e" id="svg_5" d="m80,360.4l109.6,0l0,70.4l-109.6,0l0,-70.4z"/>
   <path fill="#ffd57e" id="svg_6" d="m200.3,80.7l77.5,77.5l-49.8,49.7l-77.5,-77.5l49.8,-49.7l0,0z"/>
   <path fill="#ffd57e" id="svg_7" d="m465.6,10l70.4,0l0,109.6l-70.4,0l0,-109.6l0,0z"/>
   <path fill="#ffd57e" id="svg_8" d="m852.1,129.3l-77.5,77.5l-49.8,-49.8l77.5,-77.5l49.8,49.8l0,0z"/>
   <path fill="#ffd57e" id="svg_9" d="m810.3,359.9l109.7,0l0,70.4l-109.7,0l0,-70.4z"/>
   <path fill="#ffd57e" id="svg_10" d="m836.3,745.3l-77.5,-77.5l49.8,-49.8l77.5,77.5l-49.8,49.8z"/>
  </g>
 </g>
</svg>